#!OML:ASF E:\motion texture\Top Level 1\Subject 1\Session 1\male.ASF
:FULLY-SPECIFIED
:DEGREES
663
root -46.0379 17.9534 1.39669 858.017 -78.7251 -851.977
lowerback -5.37703 1.77116 8.2461
upperback -5.49794 1.82847 4.84379
thorax -2.6007 0.58616 0.481228
lowerneck 0.313244 -1.86494 -7.04393
upperneck -33.2339 -2.33228 10.945
head -10.3675 -2.0809 5.58029
rclavicle -4.77083e-015 6.36111e-015
rhumerus 62.7614 -2.48167 -42.7778
rradius 86.5375
rwrist 13.1165
rhand -20.6221 -22.5163
rfingers 7.12502
rthumb 5.73922 -412.419
lclavicle -4.77083e-015 6.36111e-015
lhumerus 33.3394 -19.1828 63.2361
lradius 92.6963
lwrist -3.01784
lhand -18.5539 23.6888
lfingers 7.12502
lthumb 7.73577 53.5273
rfemur -0.318247 5.57994 34.1909
rtibia 18.1628
rfoot -14.7498 -4.78937
rtoes 11.7952
lfemur -31.0051 1.87396 -5.42641
ltibia 23.601
lfoot -4.83451 7.72004
ltoes 0.973857
664
root -46.1811 17.939 1.39293 859.169 -78.6048 -852.949
lowerback -5.43948 1.77528 8.18312
upperback -5.68255 1.83343 4.85344
thorax -2.76146 0.578262 0.527748
lowerneck 0.745108 -1.67259 -7.36066
upperneck -33.5238 -2.0172 11.3118
head -10.5843 -1.94654 5.79124
rclavicle -1.59028e-014 -3.97569e-014
rhumerus 63.6729 -3.22811 -42.6212
rradius 86.4579
rwrist 13.6668
rhand -22.0968 -22.1048
rfingers 7.12502
rthumb 4.31533 -412.041
lclavicle -1.59028e-014 -3.97569e-014
lhumerus 34.5322 -18.3352 62.3028
lradius 92.9007
lwrist -2.54704
lhand -18.5937 23.4022
lfingers 7.12502
lthumb 7.69736 53.2421
rfemur -0.183886 5.51593 34.0527
rtibia 18.5235
rfoot -15.0755 -4.57133
rtoes 11.1438
lfemur -31.0051 1.87396 -5.42641
ltibia 23.601
lfoot -4.83451 7.72004
ltoes 0.973857
665
root -46.3217 17.9265 1.38776 859.381 -78.3239 -852.925
lowerback -5.51274 1.78756 8.3663
upperback -5.80355 1.83078 4.9639
thorax -2.84834 0.561085 0.544493
lowerneck 0.926129 -1.44075 -7.93036
upperneck -33.7861 -1.62336 11.8644
head -10.7477 -1.76651 6.10685
rclavicle -1.2921e-015 -4.13472e-014
rhumerus 64.9291 -4.00561 -42.6458
rradius 85.365
rwrist 14.4152
rhand -23.6526 -21.4191
rfingers 7.12502
rthumb 2.81283 -411.38
lclavicle -1.2921e-015 -4.13472e-014
lhumerus 35.7333 -17.4269 61.4842
lradius 93.1478
lwrist -2.18669
lhand -18.6769 23.4471
lfingers 7.12502
lthumb 7.61699 53.2899
rfemur -0.163213 5.55861 34.2177
rtibia 19.0045
rfoot -15.3481 -4.39526
rtoes 10.3622
lfemur -31.0051 1.87396 -5.42641
ltibia 23.601
lfoot -4.83451 7.72004
ltoes 0.973857
666
root -46.4679 17.9114 1.38579 860.528 -78.3279 -853.95
lowerback -5.59488 1.76313 8.23696
upperback -5.90085 1.79636 4.9355
thorax -2.9082 0.5428 0.586661
lowerneck 1.15452 -1.25777 -8.1838
upperneck -34.0095 -1.32341 12.1871
head -10.9087 -1.64168 6.28391
rclavicle -4.87022e-015 -2.38542e-015
rhumerus 66.005 -4.79965 -42.6566
rradius 84.8633
rwrist 15.3732
rhand -24.2804 -22.2869
rfingers 7.12502
rthumb 2.20659 -412.255
lclavicle -4.87022e-015 -2.38542e-015
lhumerus 36.9438 -16.6208 60.5828
lradius 93.4139
lwrist -1.87955
lhand -18.9208 23.6606
lfingers 7.12502
lthumb 7.38158 53.5118
rfemur 0.0204687 5.46803 33.935
rtibia 19.39
rfoot -15.6142 -4.1181
rtoes 9.43056
lfemur -31.0051 1.87396 -5.42641
ltibia 23.601
lfoot -4.83451 7.72004
ltoes 0.973857
667
root -46.6121 17.8999 1.37946 860.563 -78.0993 -853.82
lowerback -5.59684 1.70029 8.39486
upperback -5.91187 1.70018 5.07238
thorax -2.92513 0.486823 0.639785
lowerneck -0.0811365 -1.49932 -7.7498
upperneck -33.2045 -1.7214 11.6498
head -10.3207 -1.79937 5.92346
rclavicle -1.78906e-014 -2.54444e-014
rhumerus 67.4927 -5.59792 -42.6899
rradius 84.1325
rwrist 16.4047
rhand -25.9304 -22.0796
rfingers 7.12502
rthumb 0.612935 -412.058
lclavicle -1.78906e-014 -2.54444e-014
lhumerus 38.0926 -15.5412 59.8092
lradius 93.6041
lwrist -1.75868
lhand -19.2136 23.7899
lfingers 7.12502
lthumb 7.09896 53.6508
rfemur 0.0992123 5.59653 34.0828
rtibia 19.9239
rfoot -15.8623 -3.97544
rtoes 8.58001
lfemur -31.0051 1.87396 -5.42641
ltibia 23.601
lfoot -4.83451 7.72004
ltoes 0.973857
668
root -46.7555 17.8863 1.38011 860.694 -78.1184 -853.853
lowerback -5.50219 1.68249 8.46257
upperback -6.15088 1.69795 4.99104
thorax -3.22727 0.464336 0.517183
lowerneck 0.446677 -1.41358 -7.7255
upperneck -33.5207 -1.57875 11.8085
head -10.5593 -1.76271 6.01061
rclavicle -4.47266e-015 -5.40694e-014
rhumerus 68.3034 -6.28601 -42.7476
rradius 83.5338
rwrist 17.7171
rhand -27.5037 -22.1124
rfingers 7.12502
rthumb -0.906552 -412.09
lclavicle -4.47266e-015 -5.40694e-014
lhumerus 39.0541 -15.0194 59.0371
lradius 93.8364
lwrist -1.64404
lhand -19.4124 23.8589
lfingers 7.12502
lthumb 6.90703 53.7263
rfemur 0.247557 5.43316 33.9363
rtibia 20.4047
rfoot -15.9863 -3.64874
rtoes 7.36371
lfemur -31.0051 1.87396 -5.42641
ltibia 23.601
lfoot -4.83451 7.72004
ltoes 0.973857
